<svg xmlns="http://www.w3.org/2000/svg" xmlns:xlink="http://www.w3.org/1999/xlink" viewBox="0 0 727.88 513.84" width="727.88" height="513.84"><defs><style>.cls-1,.cls-6{fill:none;}.cls-2,.cls-4,.cls-8,.cls-9{fill:#ff0;}.cls-2{stroke:#000;stroke-width:1.5px;}.cls-2,.cls-4,.cls-6,.cls-8,.cls-9{stroke-linejoin:round;}.cls-3{fill:#ff7800;}.cls-4,.cls-6,.cls-8,.cls-9{stroke:#ff7800;}.cls-4{stroke-width:1.56px;}.cls-5{clip-path:url(#clip-path);}.cls-6,.cls-8{stroke-width:9.69px;}.cls-7{clip-path:url(#clip-path-2);}.cls-9{stroke-width:2.34px;}</style><clipPath id="clip-path" transform="translate(19.95 26.78)"><path class="cls-1" d="M530.31,379.4V54.74h14.36c-37.46-14.19-56.24-43.85-56.24-43.85h0s-18.78,29.66-56.25,43.85h14.37V379.4"/></clipPath><clipPath id="clip-path-2" transform="translate(19.95 26.78)"><path class="cls-1" d="M98.87,379.4V114.74h14.37C75.77,100.55,57,70.89,57,70.89h0S38.24,100.55.78,114.74H15.14V379.4"/></clipPath></defs><g id="レイヤー_2" data-name="レイヤー 2"><g id="家"><polyline class="cls-2" points="698.78 406.18 698.78 119.14 727.13 119.14 642.14 27.53 557.15 119.14 585.79 119.14 585.79 406.18"/><rect class="cls-3" x="575.31" y="93.1" width="18.53" height="18.52" transform="translate(1189.1 231.51) rotate(180)"/><rect class="cls-3" x="575.31" y="117.87" width="18.53" height="18.53" transform="translate(1189.1 281.05) rotate(180)"/><rect class="cls-3" x="600.39" y="93.1" width="18.52" height="18.52" transform="translate(1239.26 231.51) rotate(180)"/><rect class="cls-3" x="600.39" y="117.87" width="18.52" height="18.53" transform="translate(1239.26 281.05) rotate(180)"/><rect class="cls-3" x="625.47" y="93.1" width="18.52" height="18.52" transform="translate(1289.42 231.51) rotate(180)"/><rect class="cls-3" x="625.47" y="117.87" width="18.52" height="18.53" transform="translate(1289.42 281.05) rotate(180)"/><rect class="cls-3" x="650.55" y="93.1" width="18.52" height="18.52" transform="translate(1339.58 231.51) rotate(180)"/><rect class="cls-3" x="650.55" y="117.87" width="18.52" height="18.53" transform="translate(1339.58 281.05) rotate(180)"/><rect class="cls-3" x="575.31" y="166.9" width="18.53" height="18.53" transform="translate(1189.1 379.11) rotate(180)"/><rect class="cls-3" x="575.31" y="191.67" width="18.53" height="18.52" transform="translate(1189.1 428.65) rotate(180)"/><rect class="cls-3" x="600.39" y="166.9" width="18.52" height="18.53" transform="translate(1239.26 379.11) rotate(180)"/><rect class="cls-3" x="600.39" y="191.67" width="18.52" height="18.52" transform="translate(1239.26 428.65) rotate(180)"/><rect class="cls-3" x="625.47" y="166.9" width="18.52" height="18.53" transform="translate(1289.42 379.11) rotate(180)"/><rect class="cls-3" x="625.47" y="191.67" width="18.52" height="18.52" transform="translate(1289.42 428.65) rotate(180)"/><rect class="cls-3" x="650.55" y="166.9" width="18.52" height="18.53" transform="translate(1339.58 379.11) rotate(180)"/><rect class="cls-3" x="650.55" y="191.67" width="18.52" height="18.52" transform="translate(1339.58 428.65) rotate(180)"/><rect class="cls-3" x="575.31" y="240.7" width="18.53" height="18.52" transform="translate(1189.1 526.71) rotate(180)"/><rect class="cls-3" x="575.31" y="265.47" width="18.53" height="18.53" transform="translate(1189.1 576.25) rotate(180)"/><rect class="cls-3" x="600.39" y="240.7" width="18.52" height="18.52" transform="translate(1239.26 526.71) rotate(180)"/><rect class="cls-3" x="600.39" y="265.47" width="18.52" height="18.53" transform="translate(1239.26 576.25) rotate(180)"/><rect class="cls-3" x="625.47" y="240.7" width="18.52" height="18.52" transform="translate(1289.42 526.71) rotate(180)"/><rect class="cls-3" x="625.47" y="265.47" width="18.52" height="18.53" transform="translate(1289.42 576.25) rotate(180)"/><rect class="cls-3" x="650.55" y="240.7" width="18.52" height="18.52" transform="translate(1339.58 526.71) rotate(180)"/><rect class="cls-3" x="650.55" y="265.47" width="18.52" height="18.53" transform="translate(1339.58 576.25) rotate(180)"/><rect class="cls-3" x="575.31" y="314.5" width="18.53" height="18.53" transform="translate(1189.1 674.31) rotate(180)"/><rect class="cls-3" x="575.31" y="339.27" width="18.53" height="18.52" transform="translate(1189.1 723.85) rotate(180)"/><rect class="cls-3" x="600.39" y="314.5" width="18.52" height="18.53" transform="translate(1239.26 674.31) rotate(180)"/><rect class="cls-3" x="600.39" y="339.27" width="18.52" height="18.52" transform="translate(1239.26 723.85) rotate(180)"/><rect class="cls-3" x="625.47" y="314.5" width="18.52" height="18.53" transform="translate(1289.42 674.31) rotate(180)"/><rect class="cls-3" x="625.47" y="339.27" width="18.52" height="18.52" transform="translate(1289.42 723.85) rotate(180)"/><rect class="cls-3" x="650.55" y="314.5" width="18.52" height="18.53" transform="translate(1339.58 674.31) rotate(180)"/><rect class="cls-3" x="650.55" y="339.27" width="18.52" height="18.52" transform="translate(1339.58 723.85) rotate(180)"/><path class="cls-4" d="M530.31,379.4V54.74h14.36c-37.46-14.19-56.24-43.85-56.24-43.85h0s-18.78,29.66-56.25,43.85h14.37V379.4" transform="translate(19.95 26.78)"/><g class="cls-5"><line class="cls-6" x1="583.57" y1="4.51" x2="433.2" y2="63.54"/><line class="cls-6" x1="583.57" y1="18.77" x2="433.2" y2="77.8"/><line class="cls-6" x1="583.57" y1="33.02" x2="433.2" y2="92.06"/><line class="cls-6" x1="583.57" y1="47.28" x2="433.2" y2="106.31"/><line class="cls-6" x1="583.57" y1="61.54" x2="433.2" y2="120.57"/><line class="cls-6" x1="583.57" y1="75.79" x2="433.2" y2="134.83"/><line class="cls-6" x1="583.57" y1="90.05" x2="433.2" y2="149.08"/><line class="cls-6" x1="583.57" y1="104.31" x2="433.2" y2="163.34"/><line class="cls-6" x1="583.57" y1="118.56" x2="433.2" y2="177.6"/><line class="cls-6" x1="583.57" y1="132.82" x2="433.2" y2="191.85"/><line class="cls-6" x1="583.57" y1="147.08" x2="433.2" y2="206.11"/><line class="cls-6" x1="583.57" y1="161.33" x2="433.2" y2="220.37"/><line class="cls-6" x1="583.57" y1="175.59" x2="433.2" y2="234.62"/><line class="cls-6" x1="583.57" y1="189.85" x2="433.2" y2="248.88"/><line class="cls-6" x1="583.57" y1="204.1" x2="433.2" y2="263.14"/><line class="cls-6" x1="583.57" y1="218.36" x2="433.2" y2="277.39"/><line class="cls-6" x1="583.57" y1="232.62" x2="433.2" y2="291.65"/><line class="cls-6" x1="583.57" y1="246.87" x2="433.2" y2="305.91"/><line class="cls-6" x1="583.57" y1="261.13" x2="433.2" y2="320.16"/><line class="cls-6" x1="583.57" y1="275.39" x2="433.2" y2="334.42"/><line class="cls-6" x1="583.57" y1="289.64" x2="433.2" y2="348.68"/><line class="cls-6" x1="583.57" y1="303.9" x2="433.2" y2="362.93"/><line class="cls-6" x1="583.57" y1="303.9" x2="433.2" y2="362.93"/><line class="cls-6" x1="583.57" y1="318.16" x2="433.2" y2="377.19"/><line class="cls-6" x1="583.57" y1="332.41" x2="433.2" y2="391.45"/><line class="cls-6" x1="583.57" y1="346.67" x2="433.2" y2="405.7"/><line class="cls-6" x1="583.57" y1="360.93" x2="433.2" y2="419.96"/><line class="cls-6" x1="583.57" y1="375.18" x2="433.2" y2="434.22"/><line class="cls-6" x1="583.57" y1="389.44" x2="433.2" y2="448.47"/></g><path class="cls-4" d="M98.87,379.4V114.74h14.37C75.77,100.55,57,70.89,57,70.89h0S38.24,100.55.78,114.74H15.14V379.4" transform="translate(19.95 26.78)"/><g class="cls-7"><line class="cls-6" x1="152.14" y1="64.51" x2="1.77" y2="123.54"/><line class="cls-6" x1="152.14" y1="78.77" x2="1.77" y2="137.8"/><line class="cls-6" x1="152.14" y1="93.02" x2="1.77" y2="152.06"/><line class="cls-6" x1="152.14" y1="107.28" x2="1.77" y2="166.31"/><line class="cls-6" x1="152.14" y1="121.54" x2="1.77" y2="180.57"/><line class="cls-6" x1="152.14" y1="135.79" x2="1.77" y2="194.83"/><line class="cls-6" x1="152.14" y1="150.05" x2="1.77" y2="209.08"/><line class="cls-6" x1="152.14" y1="164.31" x2="1.77" y2="223.34"/><line class="cls-6" x1="152.14" y1="178.56" x2="1.77" y2="237.6"/><line class="cls-6" x1="152.14" y1="192.82" x2="1.77" y2="251.85"/><line class="cls-6" x1="152.14" y1="207.08" x2="1.77" y2="266.11"/><line class="cls-6" x1="152.14" y1="221.33" x2="1.77" y2="280.37"/><line class="cls-6" x1="152.14" y1="235.59" x2="1.77" y2="294.62"/><line class="cls-6" x1="152.14" y1="249.85" x2="1.77" y2="308.88"/><line class="cls-6" x1="152.14" y1="264.1" x2="1.77" y2="323.14"/><line class="cls-6" x1="152.14" y1="278.36" x2="1.77" y2="337.39"/><line class="cls-6" x1="152.14" y1="292.62" x2="1.77" y2="351.65"/><line class="cls-6" x1="152.14" y1="306.87" x2="1.77" y2="365.91"/><line class="cls-6" x1="152.14" y1="321.13" x2="1.77" y2="380.16"/><line class="cls-6" x1="152.14" y1="335.39" x2="1.77" y2="394.42"/><line class="cls-6" x1="152.14" y1="349.64" x2="1.77" y2="408.68"/><line class="cls-6" x1="152.14" y1="363.9" x2="1.77" y2="422.93"/><line class="cls-6" x1="152.14" y1="364.76" x2="1.77" y2="423.79"/><line class="cls-6" x1="152.14" y1="379.02" x2="1.77" y2="438.05"/><line class="cls-6" x1="152.14" y1="393.27" x2="1.77" y2="452.31"/><line class="cls-6" x1="152.14" y1="407.53" x2="1.77" y2="466.56"/><line class="cls-6" x1="152.14" y1="421.79" x2="1.77" y2="480.82"/><line class="cls-6" x1="152.14" y1="436.04" x2="1.77" y2="495.08"/><line class="cls-6" x1="152.14" y1="450.3" x2="1.77" y2="509.33"/></g><circle class="cls-8" cx="76.96" cy="151.22" r="17.55"/><line class="cls-9" x1="76.96" y1="133.67" x2="76.96" y2="168.77"/></g></g></svg>