<svg xmlns="http://www.w3.org/2000/svg" viewBox="0 0 368.83 537.45" width="368.83" height="537.45"><defs><style>.cls-1{fill:#ff0;}.cls-1,.cls-3{stroke:#000;stroke-width:1.56px;}.cls-1,.cls-3,.cls-4{stroke-linejoin:round;}.cls-2,.cls-4{fill:#ff7800;}.cls-3{fill:none;}.cls-4{stroke:#ff0;stroke-width:1.88px;}</style></defs><g id="レイヤー_2" data-name="レイヤー 2"><g id="家"><polyline class="cls-1" points="339.7 535.92 339.7 194.9 368.05 194.9 283.06 103.3 198.07 194.9 226.71 194.9 226.71 535.92"/><polygon class="cls-2" points="226.71 260.95 339.7 233.23 339.7 194.9 226.71 222.63 226.71 260.95"/><polygon class="cls-2" points="226.71 337.15 339.7 309.43 339.7 271.1 226.71 298.83 226.71 337.15"/><polygon class="cls-2" points="226.71 413.35 339.7 385.63 339.7 347.3 226.71 375.03 226.71 413.35"/><polygon class="cls-2" points="226.71 489.55 339.7 461.83 339.7 423.5 226.71 451.23 226.71 489.55"/><polygon class="cls-2" points="226.71 535.92 339.7 535.92 339.7 499.7 226.71 527.43 226.71 535.92"/><polyline class="cls-3" points="339.7 535.92 339.7 194.9 368.05 194.9 283.06 103.3 198.07 194.9 226.71 194.9 226.71 535.92"/><polyline class="cls-4" points="30.08 537.45 30.08 306.43 0.94 306.43 75.94 0.94 150.94 306.43 121.53 306.43 121.53 537.45"/></g></g></svg>