<svg xmlns="http://www.w3.org/2000/svg" xmlns:xlink="http://www.w3.org/1999/xlink" viewBox="0 0 153.91 367.44" width="153.91" height="367.44"><defs><style>.cls-1,.cls-4{fill:none;}.cls-2,.cls-5,.cls-6{fill:#ff0;}.cls-2,.cls-4,.cls-5,.cls-6{stroke:#ff7800;stroke-linejoin:round;}.cls-2{stroke-width:1.56px;}.cls-3{clip-path:url(#clip-path);}.cls-4,.cls-5{stroke-width:9.69px;}.cls-6{stroke-width:2.34px;}</style><clipPath id="clip-path" transform="translate(19.95 36.89)"><path class="cls-1" d="M98.87,249.29V44.63h14.37C75.77,30.44,57,.78,57,.78h0S38.24,30.44.78,44.63H15.14V249.29"/></clipPath></defs><g id="レイヤー_2" data-name="レイヤー 2"><g id="家"><path class="cls-2" d="M98.87,249.29V44.63h14.37C75.77,30.44,57,.78,57,.78h0S38.24,30.44.78,44.63H15.14V249.29" transform="translate(19.95 36.89)"/><g class="cls-3"><line class="cls-4" x1="152.14" y1="4.51" x2="1.77" y2="63.54"/><line class="cls-4" x1="152.14" y1="18.77" x2="1.77" y2="77.8"/><line class="cls-4" x1="152.14" y1="33.02" x2="1.77" y2="92.06"/><line class="cls-4" x1="152.14" y1="47.28" x2="1.77" y2="106.31"/><line class="cls-4" x1="152.14" y1="61.54" x2="1.77" y2="120.57"/><line class="cls-4" x1="152.14" y1="75.79" x2="1.77" y2="134.83"/><line class="cls-4" x1="152.14" y1="90.05" x2="1.77" y2="149.08"/><line class="cls-4" x1="152.14" y1="104.31" x2="1.77" y2="163.34"/><line class="cls-4" x1="152.14" y1="118.56" x2="1.77" y2="177.6"/><line class="cls-4" x1="152.14" y1="132.82" x2="1.77" y2="191.85"/><line class="cls-4" x1="152.14" y1="147.08" x2="1.77" y2="206.11"/><line class="cls-4" x1="152.14" y1="161.33" x2="1.77" y2="220.37"/><line class="cls-4" x1="152.14" y1="175.59" x2="1.77" y2="234.62"/><line class="cls-4" x1="152.14" y1="189.85" x2="1.77" y2="248.88"/><line class="cls-4" x1="152.14" y1="204.1" x2="1.77" y2="263.14"/><line class="cls-4" x1="152.14" y1="218.36" x2="1.77" y2="277.39"/><line class="cls-4" x1="152.14" y1="232.62" x2="1.77" y2="291.65"/><line class="cls-4" x1="152.14" y1="246.87" x2="1.77" y2="305.91"/><line class="cls-4" x1="152.14" y1="261.13" x2="1.77" y2="320.16"/><line class="cls-4" x1="152.14" y1="275.39" x2="1.77" y2="334.42"/><line class="cls-4" x1="152.14" y1="289.64" x2="1.77" y2="348.68"/><line class="cls-4" x1="152.14" y1="303.9" x2="1.77" y2="362.93"/></g><circle class="cls-5" cx="57.01" cy="54.33" r="17.55" transform="translate(11.94 46.79) rotate(-9.27)"/><line class="cls-6" x1="76.96" y1="73.67" x2="76.96" y2="108.77"/></g></g></svg>