<svg xmlns="http://www.w3.org/2000/svg" viewBox="0 0 251.11 283.19" width="251.11" height="283.19"><defs><style>.cls-1{fill:#ff7800;}.cls-2{fill:#ff0;}</style></defs><g id="レイヤー_2" data-name="レイヤー 2"><g id="家"><path class="cls-1" d="M62.66,282V47.31a5.73,5.73,0,1,0-11.45,0V282H27.45V41.35H3.57L56.23,1.5l54.14,39.85H86.23V282Z"/><path class="cls-2" d="M56.24,3l50.48,37.16H85V280.79H63.86V47.31a6.93,6.93,0,0,0-6.93-6.93h0A6.92,6.92,0,0,0,50,47.31V280.79H28.65V40.15H7.15L56.24,3m0-3L54.79,1.08,5.7,38.24,0,42.55H26.25V283.19H52.41V47.31a4.53,4.53,0,1,1,9.05,0V283.19h26V42.55H114l-5.89-4.33L57.66,1.06,56.22,0Z"/><path class="cls-2" d="M131.2,282V187.58a5.73,5.73,0,1,0-11.45,0V282H96V41.35H72.12L124.77,1.5l54.15,39.85H154.77V282Z"/><path class="cls-1" d="M124.78,3l50.48,37.16H153.57V280.79H132.4V187.58a6.93,6.93,0,1,0-13.85,0v93.21H97.19V40.15H75.69L124.78,3m0-3-1.42,1.08L74.24,38.24l-5.7,4.31H94.79V283.19H121V187.58a4.53,4.53,0,1,1,9,0v95.61h26V42.55h26.6l-5.89-4.33L126.21,1.06,124.76,0Z"/><path class="cls-1" d="M199.74,282V47.31a5.72,5.72,0,1,0-11.44,0V282H164.53V41.35H140.66L193.32,1.5l54.14,39.85H223.31V282Z"/><path class="cls-2" d="M193.33,3,243.8,40.15H222.11V280.79H200.94V47.31a6.92,6.92,0,1,0-13.84,0V280.79H165.73V40.15h-21.5L193.33,3m0-3-1.43,1.08L142.79,38.24l-5.7,4.31h26.24V283.19H189.5V47.31a4.52,4.52,0,1,1,9,0V283.19h26V42.55h26.6l-5.88-4.33L194.75,1.06,193.31,0Z"/></g></g></svg>