<svg xmlns="http://www.w3.org/2000/svg" viewBox="0 0 520.69 484.2" width="520.69" height="484.2"><defs><style>.cls-1{fill:#ff0;stroke:#ff7800;stroke-linejoin:round;stroke-width:2.4px;}</style></defs><g id="レイヤー_2" data-name="レイヤー 2"><g id="家"><path class="cls-1" d="M106,484.2V161.53H1.2C163.47,119.1,260.46,1.2,260.46,1.2s96.76,117.9,259,160.33H415V484.2"/><path class="cls-1" d="M142.7,484.2V161.53H62.82C186.51,119.1,260.43,1.2,260.43,1.2s73.75,117.9,197.44,160.33H378.26V484.2"/><path class="cls-1" d="M179.4,484.2V161.53h-55c85.1-42.43,136-160.33,136-160.33s50.74,117.9,135.84,160.33H341.47V484.2"/><path class="cls-1" d="M216.1,484.2V161.53h-30C232.57,119.1,260.38,1.2,260.38,1.2s27.73,117.9,74.25,160.33H304.69V484.2"/><path class="cls-1" d="M252.8,484.2V161.53h-5.13C255.61,119.1,260.35,1.2,260.35,1.2S265.08,119.1,273,161.53h-5.11V484.2"/></g></g></svg>