<svg xmlns="http://www.w3.org/2000/svg" xmlns:xlink="http://www.w3.org/1999/xlink" viewBox="0 0 1233.59 203.35" width="1233.59" height="203.35"><defs><style>.cls-1,.cls-6{fill:none;}.cls-2,.cls-4,.cls-7,.cls-8{fill:#ff0;}.cls-2{stroke:#000;stroke-width:1.5px;}.cls-2,.cls-4,.cls-6,.cls-7,.cls-8{stroke-linejoin:round;}.cls-3{fill:#ff7800;}.cls-4,.cls-6,.cls-7,.cls-8{stroke:#ff7800;}.cls-4{stroke-width:1.56px;}.cls-5{clip-path:url(#clip-path);}.cls-6,.cls-7{stroke-width:9.69px;}.cls-8{stroke-width:2.34px;}</style><clipPath id="clip-path"><path class="cls-1" d="M665.11,165.68V117h14.37C642,102.83,623.23,73.17,623.23,73.17h0S604.48,102.83,567,117h14.36v48.66"/></clipPath></defs><g id="レイヤー_2" data-name="レイヤー 2"><g id="家"><polyline class="cls-2" points="1091.21 165.17 1091.21 92.36 1062.86 92.36 1147.85 0.75 1232.84 92.36 1204.2 92.36 1204.2 165.17"/><rect class="cls-3" x="1149.89" y="92.01" width="19.5" height="19.5"/><rect class="cls-3" x="1174.07" y="92.01" width="19.5" height="19.5"/><rect class="cls-3" x="1149.89" y="116.19" width="19.5" height="19.5"/><rect class="cls-3" x="1174.07" y="116.19" width="19.5" height="19.5"/><polyline class="cls-2" points="392.17 165.72 392.17 92.9 420.51 92.9 335.52 1.3 250.54 92.9 279.18 92.9 279.18 165.72"/><rect class="cls-3" x="313.98" y="92.56" width="19.5" height="19.5" transform="translate(647.46 204.61) rotate(180)"/><rect class="cls-3" x="289.8" y="92.56" width="19.5" height="19.5" transform="translate(599.1 204.61) rotate(180)"/><rect class="cls-3" x="313.98" y="116.74" width="19.5" height="19.5" transform="translate(647.46 252.97) rotate(180)"/><rect class="cls-3" x="289.8" y="116.74" width="19.5" height="19.5" transform="translate(599.1 252.97) rotate(180)"/><path class="cls-4" d="M665.11,165.68V117h14.37C642,102.83,623.23,73.17,623.23,73.17h0S604.48,102.83,567,117h14.36v48.66"/><g class="cls-5"><line class="cls-6" x1="698.43" y1="40.01" x2="548.06" y2="99.04"/><line class="cls-6" x1="698.43" y1="54.27" x2="548.06" y2="113.3"/><line class="cls-6" x1="698.43" y1="68.52" x2="548.06" y2="127.56"/><line class="cls-6" x1="698.43" y1="82.78" x2="548.06" y2="141.81"/><line class="cls-6" x1="698.43" y1="97.04" x2="548.06" y2="156.07"/><line class="cls-6" x1="698.43" y1="111.29" x2="548.06" y2="170.33"/><line class="cls-6" x1="698.43" y1="125.55" x2="548.06" y2="184.58"/><line class="cls-6" x1="698.43" y1="139.81" x2="548.06" y2="198.84"/></g><circle class="cls-7" cx="623.25" cy="119.42" r="17.55"/><line class="cls-8" x1="623.25" y1="136.97" x2="623.25" y2="101.87"/><line class="cls-8" x1="605.7" y1="119.42" x2="640.8" y2="119.42"/><polyline class="cls-2" points="805.64 165.17 805.64 92.36 833.98 92.36 748.99 0.75 664 92.36 692.65 92.36 692.65 165.17"/><rect class="cls-3" x="727.45" y="92.01" width="19.5" height="19.5" transform="translate(1474.4 203.52) rotate(180)"/><rect class="cls-3" x="703.27" y="92.01" width="19.5" height="19.5" transform="translate(1426.04 203.52) rotate(180)"/><rect class="cls-3" x="727.45" y="116.19" width="19.5" height="19.5" transform="translate(1474.4 251.88) rotate(180)"/><rect class="cls-3" x="703.27" y="116.19" width="19.5" height="19.5" transform="translate(1426.04 251.88) rotate(180)"/><polyline class="cls-2" points="142.38 165.17 142.38 92.36 170.73 92.36 85.74 0.75 0.75 92.36 29.39 92.36 29.39 165.17"/><rect class="cls-3" x="64.2" y="92.01" width="19.5" height="19.5" transform="translate(147.89 203.52) rotate(180)"/><rect class="cls-3" x="40.02" y="92.01" width="19.5" height="19.5" transform="translate(99.53 203.52) rotate(180)"/><rect class="cls-3" x="64.2" y="116.19" width="19.5" height="19.5" transform="translate(147.89 251.88) rotate(180)"/><rect class="cls-3" x="40.02" y="116.19" width="19.5" height="19.5" transform="translate(99.53 251.88) rotate(180)"/></g></g></svg>