<svg xmlns="http://www.w3.org/2000/svg" xmlns:xlink="http://www.w3.org/1999/xlink" viewBox="0 0 245.7 536.91" width="245.7" height="536.91"><defs><style>.cls-1,.cls-6{fill:none;}.cls-2{clip-path:url(#clip-path);}.cls-3,.cls-5{fill:#ff7800;}.cls-3,.cls-4,.cls-5,.cls-6,.cls-8{stroke:#000;}.cls-3,.cls-4,.cls-5,.cls-8{stroke-linejoin:round;}.cls-3,.cls-4,.cls-6{stroke-width:1.8px;}.cls-4,.cls-8{fill:#ff0;}.cls-5{stroke-width:7.23px;}.cls-6{stroke-miterlimit:10;}.cls-7{clip-path:url(#clip-path-2);}.cls-8{stroke-width:5.5px;}</style><clipPath id="clip-path" transform="translate(0 14.55)"><polyline class="cls-1" points="92.81 506.63 92.81 61.67 56.67 61.67 149.67 1.07 242.67 61.67 206.21 61.67 206.21 506.63"/></clipPath><clipPath id="clip-path-2" transform="translate(0 14.55)"><polyline class="cls-1" points="28.68 506.63 28.68 153.76 3.03 153.76 69.03 110.75 135.03 153.76 109.15 153.76 109.15 506.63"/></clipPath></defs><g id="レイヤー_2" data-name="レイヤー 2"><g id="家"><g class="cls-2"><polyline class="cls-3" points="92.81 521.18 92.81 76.22 56.67 76.22 149.67 15.63 242.67 76.22 206.21 76.22 206.21 521.18"/><rect class="cls-4" x="136.37" y="0.9" width="26.59" height="535.11"/></g><circle class="cls-5" cx="149.67" cy="89.42" r="31.78" transform="translate(-22.83 78.63) rotate(-22.5)"/><polyline class="cls-6" points="92.81 521.18 92.81 76.22 56.67 76.22 149.67 15.63 242.67 76.22 206.21 76.22 206.21 521.18"/><g class="cls-7"><polyline class="cls-4" points="28.68 521.18 28.68 168.31 3.03 168.31 69.03 125.31 135.03 168.31 109.15 168.31 109.15 521.18"/><rect class="cls-3" x="59.6" y="114.86" width="18.87" height="411.6"/></g><circle class="cls-8" cx="69.03" cy="188.01" r="22.55"/><polyline class="cls-6" points="28.68 521.18 28.68 168.31 3.03 168.31 69.03 125.31 135.03 168.31 109.15 168.31 109.15 521.18"/></g></g></svg>