<svg xmlns="http://www.w3.org/2000/svg" viewBox="0 0 971.4 47" width="971.4" height="47"><defs><style>.cls-1{fill:#ff7800;stroke:#000;stroke-linejoin:round;stroke-width:1.5px;}.cls-2{fill:#ff0;}</style></defs><g id="レイヤー_2" data-name="レイヤー 2"><g id="家"><polyline class="cls-1" points="201.81 47 201.81 23.13 213.79 23.13 182.96 0.75 152.12 23.13 164.21 23.13 164.21 47"/><rect class="cls-2" x="185.66" y="23.07" width="4.93" height="4.93"/><rect class="cls-2" x="192.14" y="23.26" width="4.93" height="4.93"/><polyline class="cls-1" points="353.18 47 353.18 23.13 365.17 23.13 334.33 0.75 303.49 23.13 315.58 23.13 315.58 47"/><rect class="cls-2" x="343.51" y="23.26" width="4.93" height="4.93"/><polyline class="cls-1" points="504.56 47 504.56 23.13 516.54 23.13 485.7 0.75 454.87 23.13 466.96 23.13 466.96 47"/><rect class="cls-2" x="494.88" y="23.26" width="4.93" height="14.47"/><polyline class="cls-1" points="655.93 47 655.93 23.13 667.91 23.13 637.07 0.75 606.24 23.13 618.33 23.13 618.33 47"/><rect class="cls-2" x="639.78" y="23.07" width="4.93" height="4.93"/><rect class="cls-2" x="646.25" y="23.26" width="4.93" height="4.93"/><polyline class="cls-1" points="807.3 47 807.3 23.13 819.28 23.13 788.45 0.75 757.61 23.13 769.7 23.13 769.7 47"/><rect class="cls-2" x="797.63" y="23.26" width="4.93" height="4.93"/><polyline class="cls-1" points="958.67 47 958.67 23.13 970.65 23.13 939.82 0.75 908.98 23.13 921.07 23.13 921.07 47"/><rect class="cls-2" x="942.52" y="23.07" width="4.93" height="4.93"/><rect class="cls-2" x="949" y="23.26" width="4.93" height="4.93"/><polyline class="cls-1" points="50.44 47 50.44 23.13 62.42 23.13 31.59 0.75 0.75 23.13 12.84 23.13 12.84 47"/><rect class="cls-2" x="34.29" y="23.07" width="4.93" height="4.93"/><rect class="cls-2" x="40.77" y="23.26" width="4.93" height="4.93"/></g></g></svg>